<svg width="452" height="86" viewBox="0 0 452 86" fill="none" xmlns="http://www.w3.org/2000/svg">
<path fill-rule="evenodd" clip-rule="evenodd" d="M96.9883 60.9272C96.9883 59.3772 98.1994 58.165 99.746 58.165C101.293 58.165 102.167 59.1752 102.436 60.3211C102.973 63.017 105.864 66.7231 111.244 66.7231C116.423 66.7231 119.919 62.815 119.919 58.7032C119.919 53.1772 115.347 51.2215 111.783 50.2113L108.421 49.2675C104.184 47.9874 97.4592 45.1557 97.4592 36.3276C97.4592 28.9817 103.308 23.5898 111.312 23.5898C119.516 23.5898 124.963 29.1837 124.963 34.4414C124.963 35.9899 123.752 37.2037 122.206 37.2037C120.592 37.2037 119.717 36.1256 119.516 34.9118C118.977 32.2837 116.423 28.9138 111.312 28.9138C106.335 28.9138 103.175 32.6215 103.175 36.6654C103.175 42.0557 108.285 43.8093 111.177 44.6175L114.204 45.4935C118.574 46.7736 125.636 49.4032 125.636 59.041C125.636 66.1833 119.448 72.115 111.244 72.115C103.107 72.115 96.9883 66.117 96.9883 60.9272Z" fill="black"/>
<path fill-rule="evenodd" clip-rule="evenodd" d="M133.559 39.2272C133.559 37.745 134.702 36.5312 136.249 36.5312C137.727 36.5312 138.938 37.745 138.938 39.2272V56.6844C138.938 63.5584 143.107 67.1304 148.286 67.1304C153.532 67.1304 157.7 63.5584 157.7 56.6844V39.2272C157.7 37.745 158.844 36.5312 160.39 36.5312C161.869 36.5312 163.08 37.745 163.08 39.2272V56.4808C163.08 66.2543 156.557 72.1166 148.286 72.1166C140.082 72.1166 133.559 66.2543 133.559 56.4808V39.2272Z" fill="black"/>
<path fill-rule="evenodd" clip-rule="evenodd" d="M172.152 50.9561C172.152 42.2607 177.666 36.3984 186.005 36.3984C187.35 36.3984 188.494 37.4765 188.494 38.8923C188.494 40.2403 187.35 41.3846 186.005 41.3846C181.029 41.3846 177.532 44.6883 177.532 50.9561V69.2199C177.532 70.7699 176.321 71.9837 174.842 71.9837C173.296 71.9837 172.152 70.7699 172.152 69.2199V50.9561Z" fill="black"/>
<path fill-rule="evenodd" clip-rule="evenodd" d="M225.545 54.2543C225.545 44.2803 233.21 36.3945 243.297 36.3945C248.206 36.3945 252.309 38.2807 254.931 40.7083C255.536 41.2466 255.941 41.9884 255.941 42.7966C255.941 43.4706 255.738 44.0767 255.067 44.8201L243.096 59.1742C242.559 59.7803 241.952 60.0502 241.212 60.0502C239.733 60.0502 238.658 59.04 238.658 57.6242C238.658 57.0165 238.793 56.4104 239.262 55.9384L249.753 43.5384C248.005 42.0547 245.516 41.3807 243.297 41.3807C236.439 41.3807 230.991 47.0425 230.991 54.2543C230.991 61.3982 236.371 67.1278 243.297 67.1278C247.131 67.1278 250.156 65.4421 252.241 63.0823C252.981 62.4084 253.586 61.8701 254.528 61.8701C256.075 61.8701 257.218 62.9482 257.218 64.4319C257.218 64.9701 256.881 65.712 256.412 66.2518C253.586 69.6217 248.947 72.114 243.297 72.114C233.278 72.114 225.545 64.2298 225.545 54.2543Z" fill="black"/>
<path fill-rule="evenodd" clip-rule="evenodd" d="M265.278 68.9643V39.2412C265.278 37.7591 266.421 36.5469 267.968 36.5469C269.446 36.5469 270.658 37.7591 270.658 39.2412V62.4944L291.571 37.4908C292.109 36.8831 292.646 36.5469 293.454 36.5469C294.865 36.5469 296.009 37.6249 296.009 39.0408C296.009 39.579 295.807 40.1867 295.404 40.6571L259.225 83.8582C258.687 84.4643 258.15 84.8021 257.342 84.8021C255.931 84.8021 254.787 83.724 254.787 82.3082C254.787 81.77 254.989 81.1639 255.392 80.6903L265.278 68.9643Z" fill="black"/>
<path fill-rule="evenodd" clip-rule="evenodd" d="M316.178 60.9272C316.178 59.3772 317.389 58.165 318.935 58.165C320.482 58.165 321.356 59.1752 321.625 60.3211C322.162 63.017 325.054 66.7231 330.434 66.7231C335.612 66.7231 339.108 62.815 339.108 58.7032C339.108 53.1772 334.536 51.2215 330.972 50.2113L327.61 49.2675C323.374 47.9874 316.649 45.1557 316.649 36.3276C316.649 28.9817 322.498 23.5898 330.502 23.5898C338.705 23.5898 344.153 29.1837 344.153 34.4414C344.153 35.9899 342.942 37.2037 341.395 37.2037C339.781 37.2037 338.907 36.1256 338.705 34.9118C338.167 32.2837 335.612 28.9138 330.502 28.9138C325.525 28.9138 322.364 32.6215 322.364 36.6654C322.364 42.0557 327.475 43.8093 330.366 44.6175L333.393 45.4935C337.763 46.7736 344.825 49.4032 344.825 59.041C344.825 66.1833 338.638 72.115 330.434 72.115C322.296 72.115 316.178 66.117 316.178 60.9272Z" fill="black"/>
<path fill-rule="evenodd" clip-rule="evenodd" d="M380.671 54.7925V53.7145C380.401 46.7047 375.089 41.3807 368.432 41.3807C361.573 41.3807 356.126 46.9746 356.126 54.2527C356.126 61.5323 361.573 67.1262 368.432 67.1262C375.089 67.1262 380.401 61.8022 380.671 54.7925ZM380.671 66.7206C377.51 70.0905 373.14 72.1124 368.095 72.1124C358.211 72.1124 350.68 64.2283 350.68 54.2527C350.68 44.2787 358.211 36.3945 368.095 36.3945C373.14 36.3945 377.51 38.4828 380.671 41.7848V39.223C380.671 37.7409 381.882 36.5271 383.361 36.5271C384.907 36.5271 386.051 37.7409 386.051 39.223V69.2145C386.051 70.766 384.907 71.9783 383.361 71.9783C381.882 71.9783 380.671 70.766 380.671 69.2145V66.7206Z" fill="black"/>
<path fill-rule="evenodd" clip-rule="evenodd" d="M396.391 68.9643V39.2412C396.391 37.7591 397.534 36.5469 399.081 36.5469C400.56 36.5469 401.771 37.7591 401.771 39.2412V62.4944L422.684 37.4908C423.223 36.8831 423.761 36.5469 424.568 36.5469C425.979 36.5469 427.122 37.6249 427.122 39.0408C427.122 39.579 426.921 40.1867 426.517 40.6571L390.339 83.8582C389.801 84.4643 389.263 84.8021 388.456 84.8021C387.044 84.8021 385.9 83.724 385.9 82.3082C385.9 81.77 386.102 81.1639 386.505 80.6903L396.391 68.9643Z" fill="black"/>
<path fill-rule="evenodd" clip-rule="evenodd" d="M431.69 61.3381C432.564 61.3381 433.64 61.8779 433.977 62.956C434.582 64.8438 436.33 67.2682 439.962 67.2682C443.189 67.2682 445.274 64.9101 445.274 62.3499C445.274 58.98 442.584 57.43 439.02 56.2162C434.38 54.6662 429.673 52.8463 429.673 46.1743C429.673 40.6483 434.043 36.4023 440.029 36.4023C445.677 36.4023 450.452 39.9064 450.452 44.4901C450.452 45.8381 449.376 46.9162 448.031 46.9162C447.291 46.9162 446.08 46.5784 445.677 45.0284C445.206 43.2763 443.189 41.1865 440.029 41.1865C436.733 41.1865 434.851 43.5462 434.851 46.1743C434.851 49.7462 438.078 50.96 442.045 52.2401C446.283 53.5202 450.654 55.88 450.654 62.2141C450.654 67.5397 446.08 72.1218 439.962 72.1218C434.111 72.1218 429.27 68.1458 429.27 63.7641C429.27 62.4162 430.345 61.3381 431.69 61.3381Z" fill="black"/>
<path fill-rule="evenodd" clip-rule="evenodd" d="M194.605 39.0691C194.605 37.587 195.749 36.3732 197.295 36.3732C198.774 36.3732 199.985 37.587 199.985 39.0691V62.3207L231.651 24.5588C232.189 23.9511 232.726 23.6133 233.534 23.6133C234.947 23.6133 236.09 24.6913 236.09 26.1072C236.09 26.647 235.887 27.2547 235.484 27.725L199.313 70.8804C198.708 71.5544 198.169 71.8243 197.295 71.8243C195.749 71.8243 194.605 70.6105 194.605 69.0605V39.0691Z" fill="black"/>
<path fill-rule="evenodd" clip-rule="evenodd" d="M9.25713 52.4616L1.39201 45.8339C0.508485 45.0889 0.393516 43.7677 1.13688 42.8838L36.3519 0.902783C37.0953 0.0172936 38.4135 -0.0963521 39.2954 0.64708L47.1621 7.27641C48.0457 8.01984 48.159 9.34097 47.4173 10.2265L12.2006 52.2059C11.4589 53.0914 10.1407 53.2051 9.25713 52.4616Z" fill="black"/>
<path fill-rule="evenodd" clip-rule="evenodd" d="M43.5201 81.3294L35.6802 74.7237C34.7903 73.974 34.6754 72.6418 35.4234 71.75L70.607 29.8068C71.3551 28.915 72.6843 28.7998 73.5741 29.5495L81.4141 36.1552C82.3055 36.9049 82.4204 38.2371 81.6723 39.1289L46.4872 81.0721C45.7391 81.9639 44.4099 82.0791 43.5201 81.3294Z" fill="#1686FC"/>
<path fill-rule="evenodd" clip-rule="evenodd" d="M15.2211 80.2343L7.32132 73.5765C6.44725 72.841 6.33385 71.5341 7.06934 70.6581L45.6342 24.6836C46.3697 23.8076 47.6737 23.6956 48.5478 24.4311L56.4476 31.0888C57.3217 31.8244 57.4335 33.1313 56.6996 34.0073L18.1331 79.9818C17.3992 80.8578 16.0952 80.9698 15.2211 80.2343Z" fill="#11DF95"/>
</svg>
