<svg width="62" height="62" viewBox="0 0 62 62" fill="none" xmlns="http://www.w3.org/2000/svg">
<path d="M36.1667 5.1665H15.5C14.1298 5.1665 12.8156 5.71085 11.8467 6.67979C10.8777 7.64872 10.3334 8.96289 10.3334 10.3332V51.6665C10.3334 53.0368 10.8777 54.351 11.8467 55.3199C12.8156 56.2888 14.1298 56.8332 15.5 56.8332H46.5C47.8703 56.8332 49.1845 56.2888 50.1534 55.3199C51.1224 54.351 51.6667 53.0368 51.6667 51.6665V20.6665L36.1667 5.1665Z" stroke="black" stroke-width="2" stroke-linecap="round" stroke-linejoin="round"/>
<path d="M36.1666 5.1665V20.6665H51.6666" stroke="black" stroke-width="2" stroke-linecap="round" stroke-linejoin="round"/>
<path d="M41.3333 33.5835H20.6666" stroke="black" stroke-width="2" stroke-linecap="round" stroke-linejoin="round"/>
<path d="M41.3333 43.9165H20.6666" stroke="black" stroke-width="2" stroke-linecap="round" stroke-linejoin="round"/>
<path d="M25.8333 23.25H23.25H20.6666" stroke="black" stroke-width="2" stroke-linecap="round" stroke-linejoin="round"/>
</svg>
